<?xml version="1.0"?>
<svg xmlns="http://www.w3.org/2000/svg" xmlns:xlink="http://www.w3.org/1999/xlink" version="1.1" id="Capa_1" x="0px" y="0px" viewBox="0 0 512 512" style="enable-background:new 0 0 512 512;" xml:space="preserve" width="512px" height="512px"><g><g>
	<g>
		<g>
			<path d="M469.333,64H42.667C19.146,64,0,83.135,0,106.667v256c0,23.531,19.146,42.667,42.667,42.667h426.667     c23.521,0,42.667-19.135,42.667-42.667v-256C512,83.135,492.854,64,469.333,64z M490.667,362.667     c0,11.76-9.563,21.333-21.333,21.333H42.667c-11.771,0-21.333-9.573-21.333-21.333v-256c0-11.76,9.563-21.333,21.333-21.333     h426.667c11.771,0,21.333,9.573,21.333,21.333V362.667z" data-original="#000000" class="active-path" data-old_color="#000000" fill="#FFFFFF"/>
			<path d="M373.333,426.667H138.667c-5.896,0-10.667,4.771-10.667,10.667c0,5.896,4.771,10.667,10.667,10.667h234.667     c5.896,0,10.667-4.771,10.667-10.667C384,431.438,379.229,426.667,373.333,426.667z" data-original="#000000" class="active-path" data-old_color="#000000" fill="#FFFFFF"/>
			<path d="M336.042,225.448l-128-74.667c-3.292-1.896-7.354-1.927-10.688-0.031c-3.313,1.906-5.354,5.427-5.354,9.25v149.333     c0,3.823,2.042,7.344,5.354,9.25c1.646,0.948,3.479,1.417,5.313,1.417c1.854,0,3.708-0.49,5.375-1.448l128-74.667     c3.271-1.917,5.292-5.427,5.292-9.219C341.333,230.875,339.313,227.365,336.042,225.448z M213.333,290.76V178.573l96.167,56.094     L213.333,290.76z" data-original="#000000" class="active-path" data-old_color="#000000" fill="#FFFFFF"/>
		</g>
	</g>
</g></g> </svg>
