<?xml version="1.0"?>
<svg xmlns="http://www.w3.org/2000/svg" height="512px" viewBox="0 0 60 60" width="512px" class=""><g><g id="Page-1" fill="none" fill-rule="evenodd"><g id="020---Return-On-Investment" fill="rgb(0,0,0)" fill-rule="nonzero"><path id="Shape" d="m45 14c0 .5522847.4477153 1 1 1s1-.4477153 1-1c-.0029983-2.3751008-1.6735832-4.42156735-4-4.9v-.1c0-.55228475-.4477153-1-1-1s-1 .44771525-1 1v.1c-2.330324.47319247-4.0050126 2.5221184-4.0050126 4.9s1.6746886 4.4268075 4.0050126 4.9v5.917c-1.1946951-.4223781-1.9951701-1.5498471-2-2.817 0-.5522847-.4477153-1-1-1s-1 .4477153-1 1c.0029983 2.3751008 1.6735832 4.4215673 4 4.9v.1c0 .5522847.4477153 1 1 1s1-.4477153 1-1v-.1c2.330324-.4731925 4.0050126-2.5221184 4.0050126-4.9s-1.6746886-4.4268075-4.0050126-4.9v-5.916c1.1943509.4222546 1.9947486 1.5492146 2 2.816zm-6 0c.0052514-1.2667854.8056491-2.3937454 2-2.816v5.632c-1.1943509-.4222546-1.9947486-1.5492146-2-2.816zm6 8c-.0052514 1.2667854-.8056491 2.3937454-2 2.816v-5.632c1.1943509.4222546 1.9947486 1.5492146 2 2.816z" data-original="#000000" class="active-path" data-old_color="#000000" fill="#FFFFFF"/><path id="Shape" d="m42 4c-7.7319865 0-14 6.2680135-14 14s6.2680135 14 14 14 14-6.2680135 14-14c-.0082673-7.7285595-6.2714405-13.99173268-14-14zm0 26c-6.627417 0-12-5.372583-12-12s5.372583-12 12-12 12 5.372583 12 12c-.0071648 6.624447-5.375553 11.9928352-12 12z" data-original="#000000" class="active-path" data-old_color="#000000" fill="#FFFFFF"/><path id="Shape" d="m42 0c-9.5422531.0158034-17.4153838 7.47266578-17.949 17h-1.051c-2.209139 0-4 1.790861-4 4v10.586l-1.293-1.293c-.3923789-.3789722-1.0160848-.3735524-1.4018186.0121814s-.3911536 1.0094397-.0121814 1.4018186l3 3c.3904999.3903819 1.0235001.3903819 1.414 0l3-3c.3789722-.3923789.3735524-1.0160848-.0121814-1.4018186s-1.0094397-.3911536-1.4018186-.0121814l-1.293 1.293v-10.586c0-1.1045695.8954305-2 2-2h1.051c.5169275 9.1379979 7.8110021 16.4320725 16.949 16.949v2.637l-.293-.293c-.3923789-.3789722-1.0160848-.3735524-1.4018186.0121814s-.3911536 1.0094397-.0121814 1.4018186l2 2c.3904999.3903819 1.0235001.3903819 1.414 0l2-2c.3789722-.3923789.3735524-1.0160848-.0121814-1.4018186s-1.0094397-.3911536-1.4018186-.0121814l-.293.293v-2.637c9.7308632-.5336989 17.2669424-8.7194687 16.9959552-18.4611882-.2709872-9.74171957-8.2504707-17.49589006-17.9959552-17.4878118zm0 34c-8.836556 0-16-7.163444-16-16s7.163444-16 16-16 16 7.163444 16 16c-.0104696 8.8322157-7.1677843 15.9895304-16 16z" data-original="#000000" class="active-path" data-old_color="#000000" fill="#FFFFFF"/><path id="Shape" d="m3 60h5c.84849384-.0026614 1.6557601-.3662948 2.22-1h25.08c1.467221.00049 2.906212-.4032856 4.159-1.167l18.741-11.409c.9002164-.5485284 1.5275606-1.4510619 1.728-2.486.199373-1.0030453-.0274032-2.0438249-.626-2.873-.0178314-.0293295-.0371914-.0577019-.058-.085-.9654954-1.2886241-2.6486109-1.8127079-4.175-1.3l-18.51 6.17c-.3063366.1020382-.6271163.1540382-.95.154h-.574c.4752043-1.3013917.3385502-2.7476481-.372-3.937l-.09-.15c-1.0873327-1.8027268-3.035759-2.9082625-5.141-2.917h-5.232c-1.8447784-.0022216-3.634258-.6300907-5.076-1.781-1.7965359-1.4333058-4.0257628-2.2155092-6.324-2.219h-1.984c-.4222546-1.1943509-1.54921457-1.9947486-2.816-2h-5c-1.65685425 0-3 1.3431458-3 3v21c0 1.6568542 1.34314575 3 3 3zm14.875-21.219c1.7968041 1.4335191 4.0264197 2.2157352 6.325 2.219h5.231c1.4035087.003879 2.7033268.7396466 3.429 1.941l.09.149c.5456847.910432.4864029 2.0605004-.15 2.91h-6.075c-1.9746028-.0018907-3.9052624.5828413-5.547 1.68l-.733.488c-.4595009.306518-.583518.9274991-.277 1.387s.9274991.583518 1.387.277l.732-.488c1.3135346-.8777368 2.8581922-1.3455196 4.438-1.344h8.888c.5376592.0001761 1.0718359-.0862646 1.582-.256l18.511-6.171c.6777007-.2336995 1.4293064-.0239027 1.888.527.017.029.037.057.057.085.294741.3922757.4100479.8908109.3174859 1.3726665s-.3843779.9021845-.8034859 1.1573335l-18.745 11.41c-.9400676.5722941-2.0194331.8750007-3.12.875h-24.3v-20h1.8c1.8444353.0024479 3.6335262.6303042 5.075 1.781zm-15.875-2.781c0-.5522847.44771525-1 1-1h5c.55228475 0 1 .4477153 1 1v21c0 .5522847-.44771525 1-1 1h-5c-.55228475 0-1-.4477153-1-1z" data-original="#000000" class="active-path" data-old_color="#000000" fill="#FFFFFF"/></g></g></g> </svg>
