<?xml version="1.0"?>
<svg xmlns="http://www.w3.org/2000/svg" id="Layer_1" data-name="Layer 1" viewBox="0 0 512 512" width="512px" height="512px" class=""><g><title class="active-path" style="">Mobile</title><path d="M401,56.821A46.821,46.821,0,0,0,354.179,10H157.821A46.821,46.821,0,0,0,111,56.821V456.179A46.821,46.821,0,0,0,157.821,503H354.179A46.821,46.821,0,0,0,401,456.179ZM389,394H123V102H389Zm-34.885,96H157.885A34.52,34.52,0,0,1,123,455.646V406H389v49.646A34.52,34.52,0,0,1,354.115,490ZM389,90H123V56.354A34.52,34.52,0,0,1,157.885,22h196.23A34.52,34.52,0,0,1,389,56.354Z" data-original="#000000" class="active-path" fill="#FFFFFF"/><path d="M290.734,47H221.266a6,6,0,1,0,0,12h69.468a6,6,0,0,0,0-12Z" data-original="#000000" class="active-path" fill="#FFFFFF"/><path d="M256,421a27.375,27.375,0,1,0,27.375,27.375A27.406,27.406,0,0,0,256,421Zm0,42.75a15.375,15.375,0,1,1,15.375-15.375A15.392,15.392,0,0,1,256,463.749Z" data-original="#000000" class="active-path" fill="#FFFFFF"/><path d="M255,152a6,6,0,0,0,6-6V118a6,6,0,0,0-12,0v28A6,6,0,0,0,255,152Z" data-original="#000000" class="active-path" fill="#FFFFFF"/><path d="M351.025,193.543a5.982,5.982,0,0,0,4.243-1.757l20.022-20.023a6,6,0,1,0-8.484-8.485L346.783,183.3a6,6,0,0,0,4.242,10.243Z" data-original="#000000" class="active-path" fill="#FFFFFF"/><path d="M136.21,172.1l20.022,20.022a6,6,0,0,0,8.485-8.485l-20.023-20.023a6,6,0,0,0-8.484,8.486Z" data-original="#000000" class="active-path" fill="#FFFFFF"/><path d="M195.04,162.732a6,6,0,1,0,10.947-4.913L194.4,131.985a6,6,0,1,0-10.948,4.913Z" data-original="#000000" class="active-path" fill="#FFFFFF"/><path d="M301.279,162.886a5.994,5.994,0,0,0,7.742-3.474l10.069-26.465a6,6,0,1,0-11.215-4.268l-10.069,26.466A6,6,0,0,0,301.279,162.886Z" data-original="#000000" class="active-path" fill="#FFFFFF"/><path d="M181,331H330a6,6,0,0,0,0-12H310.4a77.928,77.928,0,1,0-108.908,0H181a6,6,0,0,0,0,12Zm9.017-67.8A65.933,65.933,0,1,1,291.08,319H258.313A5.992,5.992,0,0,0,261,314v-5.68a24.629,24.629,0,0,0-5.051-48.735,12.629,12.629,0,1,1,12.629-12.628,6,6,0,0,0,12,0A24.668,24.668,0,0,0,261,222.851V218a6,6,0,0,0-12,0v5.332a24.627,24.627,0,0,0,6.949,48.253,12.629,12.629,0,1,1-12.629,12.629,6,6,0,0,0-12,0A24.67,24.67,0,0,0,249,307.838V314a5.992,5.992,0,0,0,2.687,5H220.818A65.532,65.532,0,0,1,190.017,263.2Z" data-original="#000000" class="active-path" fill="#FFFFFF"/></g> </svg>
