<svg id="Layer_1" enable-background="new 0 0 512 512" height="512" viewBox="0 0 512 512" width="512" xmlns="http://www.w3.org/2000/svg"><g><g><path d="m362 150h60l80-80h-60v-60l-80 80z" fill="#ffee80"/></g><circle cx="210" cy="302" fill="#ff9eb1" r="175"/><circle cx="209" cy="301" fill="#fff" r="125"/><circle cx="210" cy="302" fill="#ff9eb1" r="75"/><circle cx="210" cy="302" fill="#fff" r="30"/><path d="m511.239 66.174c-1.548-3.737-5.195-6.174-9.239-6.174h-35.857l12.929-12.929c3.905-3.905 3.905-10.237 0-14.143-3.905-3.904-10.237-3.904-14.143 0l-12.929 12.93v-35.858c0-4.044-2.437-7.691-6.173-9.239-3.736-1.548-8.037-.692-10.898 2.167l-80 80c-1.875 1.876-2.929 4.42-2.929 7.072v55.857l-18.514 18.514c-30.454-27.351-69.997-44.77-113.486-47.098v-15.273c0-5.523-4.477-10-10-10s-10 4.477-10 10v15.273c-94.065 5.035-169.692 80.662-174.727 174.727h-15.273c-5.523 0-10 4.477-10 10s4.477 10 10 10h15.273c5.035 94.066 80.662 169.692 174.727 174.728v15.272c0 5.523 4.477 10 10 10s10-4.477 10-10v-15.273c94.065-5.035 169.692-80.662 174.727-174.727h15.273c5.523 0 10-4.477 10-10s-4.477-10-10-10h-15.273c-2.328-43.489-19.747-83.032-47.099-113.486l18.515-18.514h55.857c2.652 0 5.196-1.054 7.071-2.929l80-80c2.86-2.86 3.716-7.161 2.168-10.897zm-136.239 235.826c0 90.981-74.019 165-165 165s-165-74.018-165-165 74.019-165 165-165c41.9 0 80.194 15.707 109.326 41.531l-21.245 21.245c-23.659-20.414-54.453-32.776-88.081-32.776-74.44 0-135 60.561-135 135s60.56 135 135 135 135-60.561 135-135c0-33.628-12.362-64.422-32.776-88.081l21.245-21.245c25.824 29.132 41.531 67.426 41.531 109.326zm-172.071-7.071c-3.905 3.905-3.905 10.237 0 14.143 1.953 1.952 4.512 2.929 7.071 2.929s5.119-.977 7.071-2.929l80.968-80.968c16.815 20 26.96 45.784 26.96 73.897 0 63.411-51.589 115-115 115s-114.999-51.59-114.999-115.001 51.589-115 115-115c28.113 0 53.897 10.146 73.897 26.96zm209.071-240.787 20-20v31.715l-20 20zm-40 40 20-20v31.715l-20 20zm45.858 45.858h-31.715l20-20h31.715zm40-40h-31.715l20-20h31.715z" fill="#ff5d7d"/></g></svg>